<?xml version="1.0" standalone="no"?>
<!DOCTYPE svg PUBLIC "-//W3C//DTD SVG 20010904//EN"
 "http://www.w3.org/TR/2001/REC-SVG-20010904/DTD/svg10.dtd">
<svg version="1.0" xmlns="http://www.w3.org/2000/svg"
 width="1600.000000pt" height="1600.000000pt" viewBox="0 0 1600.000000 1600.000000"
 preserveAspectRatio="xMidYMid meet">
<metadata>
Created by potrace 1.11, written by Peter Selinger 2001-2013
</metadata>
<g transform="translate(0.000000,1600.000000) scale(0.100000,-0.100000)"
fill="#000000" stroke="none">
<path d="M4570 12989 c-168 -21 -145 -17 -307 -59 -116 -29 -297 -110 -428
-190 -226 -139 -436 -348 -574 -573 -52 -86 -125 -230 -141 -282 -7 -22 -18
-53 -26 -70 -17 -39 -61 -215 -70 -280 -3 -27 -9 -59 -12 -70 -3 -11 -7 -429
-8 -930 -2 -968 0 -1023 47 -1200 65 -248 161 -448 308 -645 55 -74 229 -254
286 -297 17 -13 50 -38 75 -57 154 -114 387 -227 565 -272 33 -9 69 -18 80
-21 125 -31 432 -49 560 -33 140 18 165 23 260 47 55 13 120 33 144 44 24 10
48 19 54 19 20 0 153 65 249 121 81 48 134 83 203 136 81 62 251 235 303 308
4 6 19 26 33 45 76 102 159 256 214 400 35 88 83 266 90 329 2 20 8 65 14 101
12 83 13 1804 0 1885 -5 33 -11 76 -14 95 -7 52 -16 93 -20 100 -2 4 -7 22
-10 41 -3 19 -22 80 -41 137 -190 551 -650 978 -1209 1123 -44 12 -93 23 -110
26 -16 2 -57 9 -90 15 -71 13 -347 17 -425 7z m325 -1004 c273 -57 500 -263
572 -520 8 -27 17 -59 21 -70 3 -11 7 -402 8 -870 2 -789 1 -856 -15 -930 -30
-129 -59 -193 -133 -294 -98 -131 -249 -233 -412 -278 -76 -20 -238 -24 -326
-8 -183 35 -347 139 -461 290 -54 72 -83 129 -115 225 l-29 85 0 875 c0 943
-1 915 53 1045 75 178 233 337 403 406 120 49 316 69 434 44z"/>
<path d="M10290 12859 c-47 -78 -95 -158 -106 -178 -12 -20 -203 -337 -424
-706 -221 -368 -410 -683 -420 -700 -9 -16 -36 -61 -60 -100 -24 -38 -51 -83
-60 -100 -10 -16 -118 -196 -240 -400 -122 -203 -230 -383 -240 -400 -10 -16
-307 -511 -660 -1100 -353 -588 -650 -1083 -660 -1100 -9 -16 -36 -61 -60
-100 -24 -38 -51 -83 -60 -100 -10 -16 -226 -376 -480 -800 -254 -423 -470
-783 -480 -800 -15 -26 -1123 -1872 -1623 -2705 -95 -157 -177 -294 -183 -305
-6 -11 -43 -73 -82 -138 -40 -65 -72 -120 -72 -122 0 -3 280 -5 623 -5 l622 0
325 541 c179 298 335 558 346 578 12 20 95 158 184 306 89 149 170 284 180
300 9 17 36 62 60 100 24 39 51 84 60 100 10 17 334 557 720 1200 387 644 708
1179 714 1190 52 93 643 1071 649 1073 4 2 7 7 7 12 0 5 619 1040 1375 2300
756 1260 1375 2294 1375 2296 0 2 -280 4 -623 4 l-622 0 -85 -141z"/>
<path d="M11065 7989 c-27 -4 -72 -10 -100 -14 -152 -22 -339 -82 -501 -163
-278 -137 -537 -375 -704 -647 -101 -164 -207 -433 -226 -576 -4 -24 -12 -78
-20 -119 -10 -60 -12 -263 -10 -990 1 -503 5 -931 9 -950 4 -19 9 -51 12 -70
7 -51 15 -93 20 -100 2 -4 7 -22 10 -41 3 -19 22 -80 41 -137 192 -556 653
-981 1224 -1128 36 -9 79 -18 95 -21 17 -2 57 -9 90 -15 33 -6 128 -12 210
-13 135 -2 200 2 330 21 59 8 236 53 270 68 17 8 48 19 70 26 52 16 196 89
282 141 161 99 351 268 458 409 27 36 52 67 55 70 25 22 173 294 193 356 3 11
15 44 27 74 25 66 66 227 74 290 3 25 9 56 13 70 4 14 8 437 9 940 2 913 2
925 -30 1120 -41 254 -198 574 -395 805 -168 197 -449 398 -673 481 -233 86
-381 114 -618 118 -91 1 -187 -1 -215 -5z m350 -1008 c174 -40 348 -156 444
-296 40 -58 85 -144 99 -190 40 -126 40 -142 38 -1015 -1 -465 -5 -858 -9
-875 -52 -203 -140 -341 -292 -455 -142 -107 -288 -151 -475 -145 -157 5 -285
49 -408 139 -110 81 -201 195 -252 316 -21 50 -28 72 -47 150 -4 14 -8 403
-10 865 -2 726 -1 850 13 915 26 127 62 208 136 308 120 161 281 255 503 295
40 7 211 -1 260 -12z"/>
</g>
</svg>
