<?xml version="1.0" encoding="utf-8"?>
<!-- Generator: Adobe Illustrator 24.0.2, SVG Export Plug-In . SVG Version: 6.00 Build 0)  -->
<svg version="1.1" id="Layer_1" xmlns="http://www.w3.org/2000/svg" xmlns:xlink="http://www.w3.org/1999/xlink" x="0px" y="0px"
	 viewBox="0 0 1920 1620" style="enable-background:new 0 0 1920 1620;" xml:space="preserve">
<style type="text/css">
	.st0{opacity:0.49;fill:#E6E6E6;}
	.st1{display:none;opacity:0.43;fill:none;stroke:#FFFFFF;stroke-width:9;stroke-miterlimit:10;}
	.st2{display:none;}
	.st3{display:inline;}
	.st4{display:inline;fill:#1A1A1A;}
	.st5{display:inline;fill:#333333;}
	.st6{display:inline;fill:#4D4D4D;}
	.st7{display:inline;fill:#666666;}
	.st8{display:inline;fill:#999999;}
	.st9{display:inline;fill:#CCCCCC;}
	.st10{display:inline;fill:#E6E6E6;}
	.st11{display:inline;fill:#FFFFFF;}
	.st12{display:inline;fill:#B3B3B3;}
	.st13{font-family:'OpenSans-Light';}
	.st14{font-size:150px;}
</style>
<rect x="1" y="-4" width="1920" height="1756"/>
<path class="st0" d="M-195.24,223.12c-1.42-75.28-2.84-150.56-4.26-225.84c785.71-4.62,1571.41-9.24,2357.12-13.86
	c17.05,256.46-15.98,514.01,1.07,770.47c-49.67,0.77-75.47,0.75-169.08,1.63c-137.34,1.29-213.18,1.24-309.33-17.12
	c-27.53-5.26-41.63-7.95-61.43-14.14c-108.61-33.95-165.46-103.33-189.05-131.8c-147.56-178.16-221.34-267.24-270.51-300.85
	c-97.89-66.9-257.78-68.34-573.58-68.49c-434.48-0.2-668.68-0.08-781.48,0"/>
<path class="st0" d="M0.09,222.85C-1.33,147.57-2.75,72.29-4.17-2.99c785.71-4.62,1571.41-9.24,2357.12-13.86
	c17.05,256.46-15.98,514.01,1.07,770.47c-49.67,0.77-75.47,0.75-169.08,1.63c-137.34,1.29-213.18,1.24-309.33-17.12
	c-27.53-5.26-41.63-7.95-61.43-14.14c-108.61-33.95-165.46-103.33-189.05-131.8c-147.56-178.16-221.34-267.24-270.51-300.85
	c-97.89-66.9-257.78-68.34-573.58-68.49c-434.48-0.2-668.68-0.08-781.48,0"/>
<path class="st1" d="M-194,284.5c404.29,0,329.07,0,733.36,0c92.85,0,394.89-1,538.27,84c109.71,65.04,179.6,262.57,253.86,369
	c90.56,129.79,165.94,165.3,235.05,179c85.79,17,242.11,23.7,290.29,21c63.46,0,142.21-3.34,205.67-3.34"/>
<g class="st2">
	<circle class="st3" cx="27.5" cy="223.5" r="26.5"/>
	<circle class="st4" cx="240.5" cy="223.5" r="26.5"/>
	<circle class="st5" cx="453.5" cy="223.5" r="26.5"/>
	<circle class="st6" cx="666.5" cy="223.5" r="26.5"/>
	<circle class="st7" cx="879.5" cy="223.5" r="26.5"/>
	<circle class="st8" cx="1092.5" cy="227.5" r="26.5"/>
	<circle class="st9" cx="1547.5" cy="500.5" r="26.5"/>
	<circle class="st10" cx="1662.5" cy="631.5" r="26.5"/>
	<circle class="st11" cx="1814.5" cy="723.5" r="26.5"/>
	<circle class="st12" cx="1292.5" cy="260.5" r="26.5"/>
	<circle class="st12" cx="1437.5" cy="369.5" r="26.5"/>
</g>
<text transform="matrix(1 0 0 1 138.9199 717.2798)" class="st2"><tspan x="0" y="0" class="st10 st13 st14">DATA </tspan><tspan x="0" y="180" class="st10 st13 st14">AND RESEARCH</tspan></text>
</svg>
