<?xml version="1.0" encoding="utf-8"?>
<!-- Generator: Adobe Illustrator 24.1.1, SVG Export Plug-In . SVG Version: 6.00 Build 0)  -->
<svg version="1.1" id="Layer_1" xmlns="http://www.w3.org/2000/svg" xmlns:xlink="http://www.w3.org/1999/xlink" x="0px" y="0px"
	 viewBox="0 0 1125 4872" style="enable-background:new 0 0 1125 4872;" xml:space="preserve">
<style type="text/css">
	.st0{fill:#E6E6E6;stroke:#000000;stroke-miterlimit:10;}
	.st1{fill:#808080;}
</style>
<rect x="-130.5" y="-95.5" class="st0" width="1386" height="5106"/>
<path class="st1" d="M-129.58-95.5C-51.3,46.26,97.5,270.5,357,463c407.76,302.48,834.81,338.12,1005,343
	c2.81,1444.83,5.61,2889.67,8.42,4334.5c-507,1-1014,2-1521,3C-143.58,3397.17-136.58,1650.83-129.58-95.5z"/>
<path d="M-129.5-95.5c21.6,120.27,106.5,505.62,455,812c425.55,374.12,927.84,352.4,1028,346c5.67,1359.33,11.33,2718.67,17,4078
	c-507,1-1014,2-1521,3C-143.5,3397.17-136.5,1650.83-129.5-95.5z"/>
</svg>
